<svg width="1024px" height="1024px" viewBox="0 0 1024 1024" version="1.1" xmlns="http://www.w3.org/2000/svg" xmlns:xlink="http://www.w3.org/1999/xlink">
    <path d="M511.845244,128.642154 C615.930697,128.642154 711.722781,164.126922 787.768906,223.651407 C788.685703,223.523283 814.985183,178.637913 866.667348,88.9952972 C880.469697,65.088927 911.038654,56.8979997 934.945024,70.7003489 C958.851394,84.5026982 967.042322,115.071655 953.239972,138.978025 L861.955991,297.086518 C923.122625,373.612491 959.690488,470.634938 959.690488,576.192646 L959.690488,728 C959.690488,750.09139 941.781878,768 919.690488,768 L104,768 C81.90861,768 64,750.09139 64,728 L64,576.192646 C64,470.626406 100.573775,373.596806 161.74933,297.067961 L71.0528479,139.977022 C57.2504986,116.070652 65.4414259,85.5016948 89.3477961,71.6993456 C113.254166,57.8969963 143.823123,66.0879236 157.625472,89.9942938 L234.639316,223.386183 C311.982491,164.121445 407.767823,128.642154 511.845244,128.642154 Z M292.920895,566.20268 C331.567473,566.20268 362.896714,534.894058 362.896714,496.272915 C362.896714,457.651773 331.567473,426.343151 292.920895,426.343151 C254.274317,426.343151 222.945075,457.651773 222.945075,496.272915 C222.945075,534.894058 254.274317,566.20268 292.920895,566.20268 Z M730.769593,566.20268 C769.416171,566.20268 800.745413,534.894058 800.745413,496.272915 C800.745413,457.651773 769.416171,426.343151 730.769593,426.343151 C692.123015,426.343151 660.793774,457.651773 660.793774,496.272915 C660.793774,534.894058 692.123015,566.20268 730.769593,566.20268 Z M104,832 L920,832 C942.09139,832 960,849.90861 960,872 L960,920 C960,942.09139 942.09139,960 920,960 L104,960 C81.90861,960 64,942.09139 64,920 L64,872 C64,849.90861 81.90861,832 104,832 Z"></path>
</svg>